<?xml version="1.0" encoding="UTF-8" standalone="no"?><!DOCTYPE svg PUBLIC "-//W3C//DTD SVG 1.1//EN" "http://www.w3.org/Graphics/SVG/1.1/DTD/svg11.dtd"><svg width="100%" height="100%" viewBox="0 0 4167 4167" version="1.1" xmlns="http://www.w3.org/2000/svg" xmlns:xlink="http://www.w3.org/1999/xlink" xml:space="preserve" xmlns:serif="http://www.serif.com/" style="fill-rule:evenodd;clip-rule:evenodd;stroke-linejoin:round;stroke-miterlimit:2;"><rect id="FWE" x="0" y="0" width="4166.67" height="4166.67" style="fill:none;"/><clipPath id="_clip1"><rect x="0" y="0" width="4166.67" height="4166.67"/></clipPath><g clip-path="url(#_clip1)"><rect x="0" y="0" width="4166.67" height="4166.67" style="fill:#c9ced1;"/><path d="M2916.69,1482.82l738.133,0l-25.6,169.879l-520.533,0l-46.933,262.4l441.6,0l-25.6,174.934l-448,0l-46.934,300.8l518.4,0l-27.733,179.987l-746.667,0l189.867,-1088Z" style="fill:#2e314b;"/><path d="M676.063,1482.82l752,0l-29.333,176.254l-528,0l-50.667,293.334l453.333,0l-29.333,170.666l-448,0l-82.666,447.746l-224,0l186.666,-1088Z" style="fill:#2e314b;"/><path d="M1476.69,1482.82l215.467,0l32,739.479l330.666,-739.479l162.134,0l78.933,733.079l285.867,-733.079l209.066,0l-441.6,1088l-194.133,0l-83.2,-698.387l-324.267,698.387l-204.8,0l-66.133,-1088Z" style="fill:#2e314b;"/><g id="layer1"></g></g></svg>